<svg width="97" height="33" viewBox="0 0 97 33" fill="none" xmlns="http://www.w3.org/2000/svg">
<path d="M26.4026 20.7612C26.2124 20.143 25.9628 19.5129 25.6656 18.8829C25.618 18.9542 22.1468 23.7807 14.3721 28.3813C14.4077 28.4051 14.4553 28.4289 14.4909 28.4526C14.5979 28.5121 14.693 28.5715 14.8 28.6191C14.907 28.6785 15.0259 28.738 15.1329 28.7855C15.6441 29.047 16.1553 29.2729 16.6427 29.4631C16.7496 29.5107 16.8566 29.5463 16.9636 29.582C16.9755 29.582 16.9874 29.5939 16.9993 29.5939C17.1182 29.6414 17.2371 29.6771 17.3559 29.7128C17.986 29.9149 18.6161 30.0575 19.1986 30.1407C19.3174 30.1526 19.4363 30.1764 19.5552 30.1883C19.7335 30.2002 19.8881 30.2121 20.0307 30.2239C20.1377 30.2239 20.2447 30.2358 20.3398 30.2358C21.7901 30.2358 22.9789 29.796 23.823 28.9638L25.6062 27.1806C26.9852 25.8016 27.2586 23.5192 26.4026 20.7612ZM16.9993 28.845C16.9636 28.8331 16.928 28.8212 16.8804 28.7974C16.4406 28.631 16.1077 28.5121 15.6441 28.2862L17.344 27.1925C17.3916 27.2163 17.7839 27.4065 17.8196 27.4303C17.8909 27.466 17.9741 27.4897 18.0454 27.5254C18.1049 27.5492 18.1643 27.5729 18.2238 27.5967L16.9993 28.845ZM19.4601 29.475C19.4007 29.4631 19.3531 29.4631 19.2937 29.4512C18.7944 29.3799 18.2713 29.261 17.7364 29.0946L18.9727 27.8582C19.044 27.882 19.1153 27.9058 19.1867 27.9296C19.258 27.9534 19.3293 27.9771 19.4007 27.989C19.472 28.0128 19.5314 28.0247 19.6028 28.0485H19.6146C19.686 28.0722 19.7573 28.0841 19.8286 28.1079C19.9713 28.1436 20.102 28.1792 20.2447 28.203C20.3041 28.2149 20.3636 28.2268 20.423 28.2387C20.4825 28.2506 20.53 28.2624 20.5895 28.2743C20.6132 28.2743 20.6251 28.2862 20.6489 28.2862L19.4601 29.475ZM23.3356 28.4645C22.6461 29.154 21.6356 29.5226 20.3992 29.5345L21.5167 28.417C21.5405 28.417 21.5643 28.417 21.5999 28.4289C21.6475 28.4289 21.7069 28.4408 21.7545 28.4408C21.8258 28.4408 21.8852 28.4526 21.9566 28.4526C22.016 28.4526 22.0873 28.4526 22.1468 28.4526C22.1705 28.4526 22.1943 28.4526 22.23 28.4526C22.2538 28.4526 22.2894 28.4526 22.3132 28.4526H22.337C22.3964 28.4526 22.444 28.4526 22.5034 28.4408C22.5153 28.4408 22.5153 28.4408 22.5272 28.4408C22.5866 28.4408 22.6342 28.4289 22.6936 28.4289C22.7531 28.4289 22.8006 28.417 22.86 28.417C22.86 28.417 22.86 28.417 22.8719 28.417C22.9908 28.4051 23.0978 28.3932 23.2048 28.3694C23.2524 28.3575 23.3118 28.3457 23.3593 28.3457C23.4188 28.3338 23.4663 28.3219 23.5258 28.31L23.3356 28.4645ZM29.8026 8.52849C28.804 7.11382 26.6998 7.10194 25.1188 7.33969C23.1097 7.63689 20.6251 8.50471 17.9503 9.85994C17.9384 9.87182 17.8433 9.90749 17.8314 9.91938C17.8077 9.8956 17.772 9.88371 17.7482 9.85994C16.2504 8.84946 14.7168 8.07674 13.2308 7.61311C10.4728 6.7453 8.20223 7.01872 6.83512 8.39772L5.05193 10.1809C4.16034 11.0725 3.72049 12.3921 3.77993 13.9732C3.77993 14.1277 3.79182 14.2822 3.81559 14.4606C3.81559 14.4725 3.81559 14.4843 3.81559 14.4843C3.82748 14.5913 3.83937 14.6983 3.85125 14.8172L3.89881 15.1501C3.95825 15.471 4.11278 16.0773 4.21978 16.4458L4.27922 16.6361V16.6479C4.31488 16.7549 4.35054 16.8738 4.3981 17.0165C4.3981 17.0284 4.40999 17.0402 4.40999 17.0521C4.45754 17.171 4.4932 17.278 4.52887 17.3731C4.71907 17.8724 4.94495 18.3836 5.20648 18.8948C5.23026 18.9304 5.24214 18.978 5.26592 19.0136C5.2897 19.0612 5.31347 19.1087 5.33724 19.1563C3.56594 21.0108 2.23449 22.8178 1.48555 24.387C0.356201 26.7289 0.748507 28.096 1.25969 28.8212C1.97296 29.8316 3.25686 30.1288 4.50509 30.1288C5.00438 30.1288 5.49178 30.0813 5.94353 30.01C7.92881 29.7128 10.3658 28.8687 12.9931 27.5492C13.0287 27.5254 13.0763 27.5135 13.112 27.4897C13.112 27.4897 13.1238 27.4897 13.1238 27.4778C13.1357 27.4778 13.1357 27.466 13.1357 27.466C13.2427 27.4065 13.3497 27.359 13.4567 27.2995C13.5161 27.2639 13.5875 27.2282 13.6588 27.1925C13.6707 27.1806 13.6826 27.1806 13.7063 27.1688C13.742 27.145 13.7777 27.1331 13.8252 27.1093C14.063 26.9785 14.3126 26.8478 14.5623 26.717C14.8595 26.5506 15.1686 26.3723 15.4777 26.1939C15.5133 26.1702 15.549 26.1583 15.5846 26.1345C15.5965 26.1226 15.6203 26.1107 15.6322 26.1107C15.7273 26.0513 15.8224 25.9918 15.9175 25.9443C16.0245 25.873 16.1434 25.8135 16.2504 25.7422C16.7259 25.4569 17.1895 25.1597 17.665 24.8506L17.8314 24.7436C18.2832 24.4464 18.7349 24.1373 19.1748 23.8164C20.958 22.5443 22.6104 21.201 24.1083 19.8101C24.5719 19.3703 25.0236 18.9304 25.4516 18.4906C25.4635 18.4787 25.4635 18.4668 25.4754 18.4668C25.5111 18.4311 25.5467 18.3955 25.5824 18.3598C27.4131 16.4577 28.7921 14.6032 29.5648 12.9865C30.7061 10.6208 30.3138 9.26554 29.8026 8.52849ZM11.4714 23.0555C11.5427 23.115 11.6022 23.1863 11.6735 23.2457C11.8518 23.4122 12.0301 23.5786 12.2085 23.7331C12.2917 23.8045 12.3749 23.8877 12.4581 23.959C12.4938 23.9828 12.5176 24.0185 12.5532 24.0422L11.2574 25.338L11.2337 25.3261C10.8651 25.0051 10.4966 24.6723 10.1519 24.3394L11.4476 23.0436C11.4595 23.0436 11.4714 23.0555 11.4714 23.0555ZM9.97354 21.4625C9.99731 21.4863 10.0092 21.5101 10.033 21.5339L10.0449 21.5576C10.0567 21.5814 10.0805 21.5933 10.0924 21.6052C10.1043 21.6171 10.1281 21.6409 10.14 21.6528C10.1875 21.7122 10.247 21.7716 10.3064 21.8311C10.3658 21.8905 10.4134 21.95 10.4728 22.0094C10.4966 22.0332 10.5085 22.0569 10.5323 22.0688C10.6036 22.1402 10.6749 22.2115 10.7344 22.2947C10.8176 22.3779 10.8889 22.4611 10.9721 22.5444L9.67634 23.8401C9.34348 23.4954 9.01061 23.1387 8.68964 22.7583C8.68964 22.7464 8.67775 22.7464 8.67775 22.7464L9.97354 21.4625C9.96165 21.4507 9.96165 21.4507 9.97354 21.4625ZM8.71342 19.8815C8.73719 19.9052 8.76097 19.9409 8.77286 19.9647C8.8323 20.0479 8.89174 20.1192 8.95118 20.2024C8.99873 20.2738 9.05817 20.3451 9.10572 20.4164C9.14138 20.464 9.18893 20.5115 9.2246 20.571C9.28404 20.6423 9.34348 20.7255 9.40292 20.7968C9.43858 20.8444 9.47424 20.88 9.5099 20.9276L8.22601 22.2115C7.91692 21.8311 7.61973 21.4388 7.34631 21.0584C7.33442 21.0465 7.32253 21.0346 7.32253 21.0108L8.60642 19.7269C8.64209 19.7745 8.67775 19.8339 8.71342 19.8815ZM7.53651 18.0745C7.59595 18.1815 7.65539 18.2885 7.72671 18.3955C7.78615 18.5025 7.85749 18.6094 7.91693 18.7164C7.92881 18.7283 7.92881 18.7402 7.9407 18.7521C7.95259 18.764 7.95258 18.7759 7.96447 18.7878C7.97636 18.7997 7.98825 18.8234 8.00014 18.8353C8.01203 18.8472 8.02392 18.871 8.0358 18.8829C8.09524 18.978 8.15468 19.0612 8.21412 19.1444L6.93023 20.4283C6.79946 20.2262 6.66869 20.0241 6.54981 19.8339C6.54981 19.8339 6.54981 19.8339 6.5617 19.822L6.53792 19.7982C6.41904 19.5961 6.30017 19.3941 6.19318 19.192C6.18129 19.1682 6.1694 19.1444 6.15751 19.1206L7.42952 17.8486C7.4414 17.92 7.48896 18.0032 7.53651 18.0745ZM5.55123 10.6683L5.71766 10.5019V10.5138C5.70577 10.5613 5.69388 10.597 5.69388 10.6445C5.68199 10.6802 5.68199 10.7278 5.6701 10.7634C5.6701 10.7753 5.6701 10.7753 5.6701 10.7872C5.65822 10.811 5.65822 10.8466 5.65822 10.8704C5.64633 10.9061 5.64633 10.9417 5.64633 10.9774C5.64633 11.0131 5.63444 11.0487 5.63444 11.0963C5.63444 11.1201 5.62256 11.1438 5.62256 11.1795C5.61067 11.2746 5.59878 11.3697 5.59878 11.4648C5.59878 11.5005 5.59878 11.548 5.58689 11.5837C5.575 11.762 5.575 11.9403 5.58689 12.1186C5.58689 12.1543 5.58689 12.19 5.58689 12.2256C5.58689 12.2732 5.58689 12.3088 5.59878 12.3564C5.59878 12.404 5.61066 12.4634 5.61066 12.5228L4.4932 13.6403C4.48132 12.3802 4.84984 11.3578 5.55123 10.6683ZM4.70719 15.4948C4.68341 15.3284 4.56453 14.6508 4.54075 14.5319L5.70577 13.3669C5.80087 13.9018 5.94353 14.4606 6.13374 15.0312L4.90928 16.2556C4.84984 16.0298 4.76662 15.7445 4.70719 15.4948ZM5.19459 17.1116C5.1827 17.0759 5.17082 17.0402 5.14704 17.0046L6.39527 15.7563C6.41905 15.8158 6.44282 15.8633 6.4666 15.9228C6.59736 16.2556 6.75191 16.5885 6.91834 16.9214C6.954 16.9927 6.98967 17.064 7.02533 17.1353C7.03722 17.1591 7.04911 17.171 7.06099 17.1948L5.78898 18.4549C5.56311 18.0151 5.36102 17.5514 5.19459 17.1116ZM2.10373 27.0023V26.9667C2.10373 26.9785 2.10373 26.9904 2.10373 27.0023ZM2.25827 26.0988C2.25827 26.0751 2.27016 26.0632 2.27016 26.0394C2.27016 26.0632 2.27016 26.0751 2.25827 26.0988ZM7.66727 27.775C7.29875 27.8226 6.90645 27.8701 6.50226 27.8701C5.49179 27.8701 4.45754 27.6324 3.87503 26.824C3.45895 26.2415 3.14987 25.1478 4.05335 23.2576C4.44565 22.4611 5.01627 21.5814 5.75332 20.6661C5.49179 20.9633 5.24214 21.2486 5.00438 21.522C5.31347 21.1416 5.65822 20.7493 6.03863 20.3451C6.14563 20.5234 6.25262 20.6898 6.37149 20.8682C6.43093 20.9633 6.50226 21.0584 6.57359 21.1653C6.57359 21.1653 6.57359 21.1654 6.57359 21.1772C6.64492 21.2723 6.70435 21.3674 6.77568 21.4625C7.06099 21.8667 7.37008 22.2709 7.70294 22.6751C7.77427 22.7702 7.85748 22.8534 7.92881 22.9485C8.00014 23.0436 8.08336 23.1269 8.15468 23.222C8.48755 23.6024 8.83229 23.9828 9.17704 24.3394C9.26026 24.4226 9.34348 24.5059 9.42669 24.5891C9.50991 24.6723 9.59312 24.7555 9.67634 24.8387C10.033 25.1835 10.4015 25.5282 10.7938 25.8611C10.8889 25.9443 10.9721 26.0156 11.0672 26.087C11.1623 26.1583 11.2455 26.2415 11.3406 26.3128C11.4476 26.4079 11.5665 26.4911 11.6854 26.5862C10.1994 27.1925 8.83229 27.5967 7.66727 27.775ZM14.0511 25.4569C14.0154 25.4688 13.9917 25.4926 13.956 25.5044C13.9441 25.5163 13.9322 25.5163 13.9203 25.5282C13.8728 25.552 13.8133 25.5877 13.7658 25.6114C13.6826 25.659 13.5875 25.6946 13.5042 25.7422C13.5042 25.7422 13.4924 25.7422 13.4924 25.7541C13.4924 25.7541 13.4805 25.7541 13.4805 25.766C13.4448 25.7779 13.421 25.8016 13.3854 25.8135C13.0525 25.98 12.7315 26.1345 12.4106 26.2772C12.2085 26.1226 12.0064 25.9681 11.8043 25.8135L13.1001 24.5177C13.1476 24.5534 13.1833 24.5891 13.2308 24.6247C13.2903 24.6723 13.3497 24.7198 13.421 24.7674C13.4805 24.8149 13.5399 24.8625 13.6112 24.91C13.6469 24.9338 13.6826 24.9695 13.7182 24.9933C13.7539 25.017 13.7896 25.0408 13.8252 25.0765C13.8371 25.0884 13.849 25.1003 13.8609 25.1003C13.8847 25.1121 13.9084 25.1359 13.9203 25.1478C13.956 25.1716 13.9917 25.1954 14.0273 25.231C14.0749 25.2667 14.1224 25.3024 14.17 25.338C14.1938 25.3499 14.2175 25.3737 14.2413 25.3856C14.1581 25.3975 14.1105 25.4212 14.0511 25.4569ZM26.7949 14.1039C26.3432 15.0431 25.6299 16.0773 24.7146 17.1591C24.7146 17.1472 24.7027 17.1472 24.7027 17.1353C23.7873 15.6256 22.6104 14.1396 21.2433 12.7725C20.5419 12.0711 19.8167 11.4291 19.0678 10.8347C20.5895 10.1928 21.9922 9.76483 23.181 9.58651C24.4649 9.39631 26.153 9.4082 26.9733 10.5375C27.4012 11.1201 27.7103 12.2137 26.7949 14.1039ZM16.2147 3.25024V2.78662C17.4035 2.78662 18.3783 1.81181 18.3783 0.623016H18.8419C18.8419 1.81181 19.8167 2.78662 21.0055 2.78662V3.25024C19.8167 3.25024 18.8419 4.22506 18.8419 5.41385H18.3783C18.3783 4.22506 17.4035 3.25024 16.2147 3.25024Z" fill="#33FFA7"/>
<path d="M45.5421 22.9486C43.8659 22.9486 42.4393 22.592 41.2624 21.8906C40.0736 21.1892 39.1702 20.1906 38.5163 18.9067C37.8744 17.6228 37.5534 16.113 37.5534 14.3774C37.5534 12.6418 37.8744 11.132 38.5163 9.84811C39.1583 8.56421 40.0736 7.57752 41.2624 6.86424C42.4393 6.16285 43.8778 5.80621 45.5421 5.80621C47.1945 5.80621 48.6211 6.16285 49.8099 6.86424C50.9986 7.56563 51.914 8.56421 52.556 9.84811C53.1979 11.132 53.507 12.6418 53.507 14.3774C53.507 16.113 53.186 17.6228 52.556 18.9067C51.914 20.1906 51.0105 21.1773 49.8099 21.8906C48.6092 22.6039 47.1945 22.9486 45.5421 22.9486ZM45.5421 19.3466C46.4812 19.3466 47.254 19.2039 47.8365 18.9067C48.419 18.6214 48.8588 18.1102 49.1322 17.3969C49.4057 16.6718 49.5364 15.6732 49.5364 14.3774C49.5364 13.0697 49.4057 12.0593 49.1322 11.346C48.8588 10.6327 48.4309 10.1334 47.8365 9.84811C47.254 9.5628 46.4812 9.40826 45.5421 9.40826C44.5792 9.40826 43.8064 9.55091 43.2239 9.84811C42.6414 10.1334 42.2016 10.6327 41.9282 11.346C41.6547 12.0593 41.524 13.0697 41.524 14.3774C41.524 15.6732 41.6547 16.6718 41.9282 17.3969C42.2016 18.1221 42.6295 18.6214 43.2239 18.9067C43.8064 19.2039 44.5792 19.3466 45.5421 19.3466Z" fill="#33FFA7"/>
<path d="M59.142 22.6991H55.4448V10.2167H58.8923V13.7712L59.142 13.8901V22.6991ZM59.142 14.8887H58.4525V12.2377H59.0469C59.356 11.6076 59.8077 11.0727 60.3783 10.6328C60.9489 10.193 61.6741 9.97897 62.5538 9.97897C63.4335 9.97897 64.1349 10.1692 64.6461 10.5615C65.1692 10.9538 65.5377 11.4769 65.7754 12.1545C66.0013 12.8202 66.1202 13.581 66.1202 14.4251V15.5663H62.423V14.8887C62.423 14.2111 62.3042 13.7474 62.0783 13.4978C61.8405 13.2481 61.4363 13.1293 60.8419 13.1293C60.2832 13.1293 59.8553 13.2481 59.5818 13.4978C59.2727 13.7474 59.142 14.2111 59.142 14.8887Z" fill="#33FFA7"/>
<path d="M71.125 22.699H67.6775V6.06781H71.3746V19.7389L71.125 20.0599V22.699ZM75.3452 22.9487C74.3704 22.9487 73.5263 22.7703 72.8131 22.4137C72.0998 22.0571 71.5767 21.5459 71.2439 20.8683H70.7208L70.8991 17.4683H71.3746C71.3746 18.0152 71.4816 18.455 71.6956 18.7998C71.9096 19.1445 72.2187 19.3823 72.6229 19.5487C73.0271 19.7033 73.5263 19.7865 74.1207 19.7865C74.6557 19.7865 75.0956 19.7151 75.4522 19.5844C75.8088 19.4536 76.0941 19.2515 76.2962 18.99C76.4983 18.7285 76.6529 18.3837 76.7361 17.9557C76.8193 17.5397 76.855 17.0404 76.855 16.4816C76.855 15.9229 76.8193 15.4236 76.7361 15.0075C76.6529 14.5915 76.5102 14.2348 76.2962 13.9614C76.0941 13.688 75.8088 13.4859 75.4522 13.3551C75.0956 13.2243 74.6557 13.153 74.1207 13.153C73.5263 13.153 73.0271 13.2362 72.6229 13.3908C72.2187 13.5453 71.9096 13.795 71.6956 14.1278C71.4816 14.4607 71.3746 14.9005 71.3746 15.4712H70.8991L70.7208 11.9761H71.5173C71.8026 11.4412 72.2662 10.9775 72.9201 10.5852C73.5739 10.1929 74.3704 9.99083 75.3095 9.99083C77.0333 9.99083 78.3291 10.5733 79.2207 11.7502C80.1004 12.9271 80.5521 14.5082 80.5521 16.4935C80.5521 18.4431 80.1123 20.0123 79.2207 21.2011C78.341 22.3543 77.0452 22.9487 75.3452 22.9487Z" fill="#33FFA7"/>
<path d="M85.8898 8.80203H82.2402L82.1926 6.06781H85.8898V8.80203ZM85.9611 22.699H82.2402V10.2167H85.9611V22.699Z" fill="#33FFA7"/>
<path d="M96.2441 13.2957H87.0071V10.2167H96.2441V13.2957ZM93.807 22.7466C92.1903 22.7466 90.9777 22.4256 90.1812 21.7837C89.3847 21.1417 88.9924 20.0837 88.9924 18.6096V10.5971L89.7889 7.31607H92.7133V18.1816C92.7133 18.7285 92.8441 19.0613 93.1057 19.204C93.3672 19.3348 93.9021 19.4061 94.6986 19.4061H96.2322V22.5088C95.935 22.5802 95.5665 22.6277 95.1266 22.6872C94.6986 22.7228 94.2588 22.7466 93.807 22.7466Z" fill="#33FFA7"/>
<path d="M41.5411 25.6771H38.6835V25.1812C38.6835 24.7009 38.9984 24.4018 39.4786 24.4018C39.6281 24.4018 39.8486 24.4333 40.0454 24.4727L40.1635 23.8114C39.8722 23.7327 39.6281 23.6933 39.3841 23.6933C38.5103 23.6933 37.8726 24.2601 37.8726 25.1812V25.6771H36.8256V26.362H37.8726V29.3771H38.6835V26.362H40.7303V29.3771H41.5411V25.6771ZM44.696 25.5826C44.2236 25.5826 43.8222 25.7322 43.4994 26.0077V25.6771H42.6807V29.3771H43.4994V26.8816C43.7907 26.5194 44.1764 26.3226 44.5307 26.3226C45.129 26.3226 45.4911 26.6848 45.4911 27.3618V29.3771H46.3098V27.3145C46.3098 26.2439 45.6564 25.5826 44.696 25.5826ZM50.2207 25.6771V25.9684C49.9058 25.7243 49.5043 25.5826 49.032 25.5826C47.9929 25.5826 47.1584 26.4486 47.1584 27.5271C47.1584 28.6056 47.9929 29.4715 49.032 29.4715C49.5043 29.4715 49.9058 29.3298 50.2207 29.0858V29.3771H51.0316V25.6771H50.2207ZM49.1501 28.7315C48.4731 28.7315 47.9771 28.1884 47.9771 27.5271C47.9771 26.8658 48.4731 26.3226 49.1501 26.3226C49.5594 26.3226 49.9452 26.4643 50.2207 26.8579V28.1962C49.9452 28.5898 49.5594 28.7315 49.1501 28.7315ZM54.1827 25.5826C53.7103 25.5826 53.3089 25.7322 52.9861 26.0077V25.6771H52.1674V29.3771H52.9861V26.8816C53.2774 26.5194 53.6631 26.3226 54.0174 26.3226C54.6156 26.3226 54.9778 26.6848 54.9778 27.3618V29.3771H55.7965V27.3145C55.7965 26.2439 55.1431 25.5826 54.1827 25.5826ZM58.5974 28.7315C57.9125 28.7315 57.4638 28.1962 57.4638 27.5271C57.4638 26.8579 57.9125 26.3226 58.5974 26.3226C59.0934 26.3226 59.4634 26.606 59.5657 27.0233H60.4002C60.2663 26.1731 59.5263 25.5826 58.5974 25.5826C57.4874 25.5826 56.6451 26.4328 56.6451 27.5271C56.6451 28.6292 57.4874 29.4715 58.5974 29.4715C59.5263 29.4715 60.2663 28.8811 60.4002 28.0309H59.5657C59.4634 28.4481 59.0934 28.7315 58.5974 28.7315ZM63.0783 25.5826C61.9525 25.5826 61.1732 26.4328 61.1732 27.5271C61.1732 28.6292 61.9604 29.4715 63.1255 29.4715C63.9285 29.4715 64.5819 29.0779 64.818 28.4088H63.9206C63.771 28.645 63.4955 28.7552 63.1334 28.7552C62.4406 28.7552 62.0864 28.3301 62.0076 27.7711H64.9125C65.07 26.5194 64.3063 25.5826 63.0783 25.5826ZM63.0861 26.2754C63.6608 26.2754 64.0544 26.5982 64.1017 27.2043H62.0234C62.1179 26.6848 62.4721 26.2754 63.0861 26.2754Z" fill="#33FFA7"/>
</svg>
